<svg width="219" height="53" viewBox="0 0 219 53" xmlns="http://www.w3.org/2000/svg">
    <g fill="#FFF" fill-rule="evenodd">
        <path d="M21.362 33.49c-.092.737-.279 1.354-.556 1.856a3.703 3.703 0 0 1-1.017 1.205 3.963 3.963 0 0 1-1.348.657 6.135 6.135 0 0 1-1.599.198 5.623 5.623 0 0 1-1.484-.19 3.186 3.186 0 0 1-1.207-.619 2.516 2.516 0 0 1-.75-1.124c-.162-.469-.203-1.024-.12-1.669.05-.387.175-.85.378-1.392.203-.543.47-1.07.803-1.587l1.705.657c-.134.257-.243.483-.332.677a6.663 6.663 0 0 0-.226.55 5.31 5.31 0 0 0-.153.514c-.043.17-.075.343-.097.522-.047.367-.03.68.05.938.08.257.211.463.394.618.182.154.391.26.63.318.24.061.482.092.729.092.64 0 1.136-.166 1.489-.5.355-.333.575-.855.668-1.57l1.254-9.8h2.024l-1.235 9.65zM26.842 33.983a7.07 7.07 0 0 1-.101.626c-.032.13-.062.194-.093.194-.452 0-.886-.033-1.303-.098a3.427 3.427 0 0 1-1.1-.356 1.635 1.635 0 0 1-.699-.715c-.148-.303-.194-.673-.14-1.11l1.11-8.669h2.025l-1.023 8.011c-.032.238-.027.447.015.62a.742.742 0 0 0 .23.402.937.937 0 0 0 .382.194c.142.034.293.052.45.052.128 0 .212.07.247.209.037.139.035.352 0 .64"/>
        <path d="M31.863 29.737c-.266 0-.503.074-.713.216a2.14 2.14 0 0 0-.563.582c-.164.244-.302.519-.415.828-.115.308-.21.648-.288 1.027.251.269.498.46.739.58.24.12.513.18.819.18.414 0 .762-.145 1.045-.433.283-.287.455-.666.514-1.132.075-.575.012-1.027-.188-1.355-.198-.329-.515-.493-.95-.493zm-5.215 5.066c-.246 0-.427-.068-.543-.202-.116-.134-.157-.33-.125-.587.038-.29.11-.507.219-.657.107-.15.24-.223.396-.223h.385c.188 0 .34-.036.464-.104a.871.871 0 0 0 .302-.284c.08-.118.147-.26.203-.423.056-.164.113-.36.172-.587a5.789 5.789 0 0 1 .51-1.506c.23-.457.512-.85.845-1.178a3.59 3.59 0 0 1 1.147-.759 3.585 3.585 0 0 1 1.387-.267c.56 0 1.047.084 1.46.253.412.17.745.408 1 .714.257.31.432.67.528 1.087.094.42.11.875.047 1.372a5.182 5.182 0 0 1-.1.549c-.043.171-.087.33-.135.478.101.198.268.358.5.476.23.12.48.179.745.179.138 0 .22.07.246.21.028.138.024.346-.011.623-.025.19-.047.339-.065.447-.02.109-.038.195-.054.254-.02.06-.031.096-.038.111-.006.015-.017.024-.024.024-.159 0-.332-.014-.521-.039a2.457 2.457 0 0 1-1.125-.453 1.6 1.6 0 0 1-.443-.507c-.385.379-.799.65-1.244.812a4.052 4.052 0 0 1-1.405.246c-.464 0-.872-.062-1.226-.187-.352-.122-.706-.346-1.061-.66-.285.305-.567.514-.847.623-.28.11-.652.165-1.115.165h-.474z"/>
        <path d="M36.107 34.802c-.255 0-.439-.068-.55-.2-.11-.135-.15-.33-.116-.588.036-.29.108-.508.215-.657.109-.15.241-.223.398-.223h1.347a3.407 3.407 0 0 1-.306-.855 2.65 2.65 0 0 1-.035-.873c.07-.555.235-1.05.49-1.481.259-.432.579-.787.959-1.065a4.16 4.16 0 0 1 1.261-.625c.463-.14.94-.21 1.433-.21a8.1 8.1 0 0 1 1.148.083c.383.055.705.13.97.231l-.544 1.578a5.879 5.879 0 0 0-.642-.127 5.618 5.618 0 0 0-.869-.068c-.208 0-.424.028-.655.083a2.29 2.29 0 0 0-.647.268c-.204.126-.38.296-.53.513-.153.22-.248.493-.29.82-.07.547.054.97.377 1.273.32.304.785.455 1.396.455h2.011l-.214 1.668h-6.607zM47.133 23.722a1.413 1.413 0 0 1-.114-.73c.06-.457.252-.827.576-1.11.327-.283.747-.424 1.261-.424.12 0 .256.01.408.03.157.019.31.053.461.105l-.298.818a1.865 1.865 0 0 0-.65-.104c-.267 0-.476.06-.631.187a.75.75 0 0 0-.272.514c-.03.237.023.416.16.536.138.118.35.178.636.178h.901l-.109.847h-3.03l.109-.847h.592zm-.275 1.801h2.01l-.884 6.912h-2.011l.885-6.912zm4.613 8.295c-.27.35-.61.598-1.02.753-.409.154-.899.231-1.47.231h-4.732l.214-1.669h3.873c.6 0 1.041-.131 1.323-.393.28-.264.461-.728.548-1.394l.957-7.49h2.01l-1.003 7.848c-.056.437.05.784.317 1.043.268.258.654.386 1.156.386.147 0 .248.065.3.194.052.129.061.339.023.626-.044.348-.082.577-.118.685-.032.11-.083.164-.152.164-.188 0-.397-.016-.623-.052a2.604 2.604 0 0 1-1.182-.462 1.359 1.359 0 0 1-.421-.47z"/>
        <path d="M53.643 33.134c.306 0 .564-.028.771-.082.21-.054.376-.137.5-.253.122-.113.214-.254.275-.424.062-.169.107-.374.137-.611l1.013-7.907h2.01L57.29 32.12a4.163 4.163 0 0 1-.313 1.185c-.15.333-.367.61-.647.836-.279.222-.633.388-1.062.497-.428.11-.95.164-1.572.164-.247 0-.427-.068-.543-.2-.116-.135-.157-.33-.125-.588.037-.29.11-.507.217-.657.109-.15.241-.223.398-.223M67.024 38.525c.039-.307.17-.562.394-.76.222-.197.492-.297.806-.297.305 0 .543.1.708.297.167.198.23.453.192.76a1.235 1.235 0 0 1-.388.774c-.217.198-.48.299-.784.299-.315 0-.56-.1-.73-.299-.173-.198-.237-.456-.198-.774m-2.616 0a1.184 1.184 0 0 1 1.2-1.057c.305 0 .54.1.709.297.166.198.23.453.19.76-.04.318-.17.576-.387.774a1.126 1.126 0 0 1-.784.299c-.316 0-.56-.1-.731-.299-.172-.198-.238-.456-.197-.774m.197-6.031c-.09.695.114 1.213.614 1.556.496.342 1.283.514 2.356.514.504 0 .95-.03 1.342-.09a5.56 5.56 0 0 0 1.022-.245c.289-.105.51-.219.657-.343.149-.124.232-.251.249-.38.022-.18-.096-.376-.353-.595-.257-.217-.658-.476-1.202-.774-.589-.318-1.024-.664-1.301-1.037-.277-.372-.38-.84-.308-1.407.048-.377.17-.733.367-1.07.196-.34.456-.634.78-.888a3.72 3.72 0 0 1 1.177-.602 5.027 5.027 0 0 1 1.976-.203c.156.016.316.038.48.068.163.031.322.062.474.096.154.036.288.073.401.114l-.534 1.518a4.555 4.555 0 0 0-.554-.126 3.659 3.659 0 0 0-1.283-.024 2.304 2.304 0 0 0-.567.165c-.183.08-.339.186-.464.32a.87.87 0 0 0-.226.5.66.66 0 0 0 .088.424c.075.132.187.265.332.393.147.13.313.252.5.366.189.114.378.226.572.336.257.148.496.3.716.452.222.154.413.321.574.499.157.179.278.376.36.589.08.213.104.454.07.723a2.5 2.5 0 0 1-.493 1.198 3.45 3.45 0 0 1-1.1.925c-.463.251-1.021.45-1.675.595a10.33 10.33 0 0 1-2.208.214c-.835 0-1.58-.065-2.225-.198-.65-.136-1.19-.352-1.618-.65a2.51 2.51 0 0 1-.925-1.146c-.188-.467-.238-1.033-.153-1.698.046-.358.162-.79.35-1.296a8.034 8.034 0 0 1 .816-1.579l1.718.67c-.196.369-.369.74-.52 1.119-.153.376-.247.71-.282.997M76.7 33.134c.48 0 .85-.1 1.103-.305.253-.204.411-.564.477-1.081l.05-.385c.065-.507-.054-.892-.355-1.157-.3-.262-.76-.392-1.381-.392h-1.405l.212-1.669h1.805c.61 0 1.13.073 1.559.216.43.144.775.345 1.032.604.257.256.436.562.535.908.098.346.121.724.069 1.132l-.125.982c-.127.993-.42 1.71-.874 2.154-.456.441-1.167.661-2.132.661h-3.652l.214-1.668h2.867zM83.89 31.466c-.074.566.008.986.245 1.26.236.272.604.408 1.108.408h1.151l.219-1.712c.03-.23.037-.442.016-.642a1.497 1.497 0 0 0-.151-.543.907.907 0 0 0-.357-.38 1.121 1.121 0 0 0-.56-.135c-.177 0-.359.034-.544.098a1.45 1.45 0 0 0-.505.306 1.88 1.88 0 0 0-.396.543c-.112.224-.188.49-.227.797m.306 4.319c.295 0 .56-.014.794-.036.235-.026.436-.072.602-.143a.917.917 0 0 0 .393-.298c.094-.128.156-.297.183-.506h-1.419c-.493 0-.936-.062-1.328-.186a2.532 2.532 0 0 1-.991-.567 2.11 2.11 0 0 1-.577-.982c-.116-.402-.14-.871-.072-1.407.06-.467.19-.918.387-1.356.2-.437.469-.827.808-1.169.339-.343.747-.612 1.22-.812a4.13 4.13 0 0 1 1.597-.298c.445 0 .855.07 1.23.21.376.138.7.342.972.612.27.266.469.605.594 1.01.124.408.154.88.086 1.414l-.24 1.863H89.5c.138 0 .235.068.292.2.058.136.066.35.028.649-.042.337-.086.558-.129.661-.042.107-.09.158-.138.158h-1.374c-.12.477-.304.882-.548 1.214a2.953 2.953 0 0 1-.901.812c-.358.21-.762.356-1.211.448a7.725 7.725 0 0 1-2.417.065 8.156 8.156 0 0 1-.918-.173l.5-1.577c.218.05.453.096.706.135.25.038.52.059.806.059"/>
        <path d="M93.956 29.723a3.35 3.35 0 0 0-.539.044c-.18.033-.352.065-.515.107-.163.038-.31.083-.44.133-.128.05-.225.094-.29.133.38.339.702.68.962 1.028.261.348.493.695.696 1.043.157-.09.32-.197.483-.321a3.57 3.57 0 0 0 .45-.402 2.18 2.18 0 0 0 .338-.447c.09-.152.145-.314.167-.484a.59.59 0 0 0-.04-.282.641.641 0 0 0-.206-.276 1.118 1.118 0 0 0-.419-.2 2.32 2.32 0 0 0-.647-.076zm-4.405 5.08c-.257 0-.439-.07-.55-.209-.109-.139-.15-.333-.118-.581.037-.289.109-.506.218-.655.108-.151.239-.224.398-.224h1.566c.286 0 .545-.019.778-.059.23-.04.414-.086.548-.135a73.74 73.74 0 0 0-.55-.656 8.648 8.648 0 0 0-.484-.512 6.741 6.741 0 0 0-.518-.456 10.178 10.178 0 0 0-.662-.475c.02-.1.057-.238.106-.417.045-.178.095-.362.15-.55.055-.19.108-.366.164-.523.054-.158.101-.276.142-.358.18-.108.404-.22.67-.335.265-.113.553-.218.86-.313a8.94 8.94 0 0 1 .947-.23c.321-.06.641-.09.956-.09.474 0 .916.048 1.327.141.411.097.763.239 1.054.434.29.192.508.43.655.714.145.283.195.619.144 1.005a2.295 2.295 0 0 1-.245.768c-.133.253-.3.497-.501.73a4.995 4.995 0 0 1-.698.66c-.264.21-.544.4-.84.567.112.04.274.065.485.075.21.01.385.015.521.015h1.51c.136 0 .236.065.292.194.057.127.066.346.026.655-.044.347-.082.571-.114.669-.033.1-.082.15-.151.15h-2.084c-.524 0-.967-.055-1.331-.165-.366-.108-.657-.247-.871-.415a6.918 6.918 0 0 1-1.266.415c-.468.11-.938.166-1.41.166H89.55z"/>
        <path d="M102.558 34.802c-.491 0-.913-.083-1.26-.247-.35-.162-.584-.389-.706-.676-.267.306-.637.537-1.117.693-.475.153-1.09.23-1.84.23-.245 0-.427-.068-.541-.2-.118-.135-.157-.33-.125-.588.037-.29.11-.508.217-.657.108-.15.241-.223.397-.223.552 0 .96-.094 1.22-.283.26-.188.424-.55.493-1.087l.298-2.323h2.012l-.322 2.502c-.02.16-.025.309-.015.454.012.145.05.27.115.38.064.11.164.197.3.26.133.066.314.097.54.097.346 0 .606-.085.78-.253.174-.169.299-.54.372-1.117l.297-2.323h2.011l-.321 2.502c-.021.16-.024.309-.014.454.012.145.047.27.108.38.058.11.158.197.299.26.138.066.32.097.55.097.353 0 .616-.088.786-.26.169-.174.29-.544.364-1.11l.463-3.619h2.01l-.457 3.56c-.054.426.05.772.313 1.034.261.263.647.395 1.16.395.146 0 .25.065.3.193.053.13.06.338.025.626a5.84 5.84 0 0 1-.117.685c-.035.11-.087.164-.154.164-.188 0-.39-.016-.602-.044a3.19 3.19 0 0 1-.63-.157 2.342 2.342 0 0 1-.568-.299 1.45 1.45 0 0 1-.414-.454 2.357 2.357 0 0 1-.92.716 3.062 3.062 0 0 1-1.228.238c-.5 0-.92-.083-1.252-.247-.335-.162-.567-.389-.698-.676-.512.616-1.223.923-2.129.923"/>
        <path d="M110.944 33.134c.306 0 .564-.028.771-.082.21-.054.376-.137.5-.253.123-.113.214-.254.275-.424.062-.169.107-.374.137-.611l1.013-7.907h2.01l-1.059 8.263a4.163 4.163 0 0 1-.312 1.185c-.152.333-.368.61-.648.836-.279.222-.634.388-1.061.497-.43.11-.952.164-1.573.164-.246 0-.429-.068-.543-.2-.116-.135-.157-.33-.125-.588.037-.29.109-.507.217-.657.108-.15.241-.223.398-.223M119.64 23.856l-1.4 10.946h-2.025l1.4-10.946zM125.961 25.628c.039-.307.172-.56.398-.76.23-.198.495-.299.802-.299.304 0 .542.1.707.3.166.199.231.452.191.76a1.22 1.22 0 0 1-.387.773 1.12 1.12 0 0 1-.784.298c-.316 0-.558-.101-.728-.304-.172-.204-.238-.46-.199-.768m-2.054 11.78c-.298 0-.565-.02-.806-.058a4.157 4.157 0 0 1-.588-.135l.455-1.595c.114.022.226.037.333.053.107.015.213.024.322.024.375 0 .656-.11.847-.33.19-.217.317-.57.38-1.056l.788-6.166h2.025l-.637 4.988h1.24c.138 0 .235.068.294.202.057.134.065.349.026.647-.04.329-.082.548-.12.656-.038.11-.088.164-.147.164h-1.508c-.086.536-.227.972-.418 1.31-.19.337-.418.604-.686.798a2.36 2.36 0 0 1-.863.395c-.31.068-.622.102-.937.102"/>
        <path d="M128.32 34.802c-.247 0-.427-.068-.543-.2-.116-.135-.159-.33-.125-.588.034-.27.104-.481.208-.642.105-.159.24-.238.407-.238h4.346c.51 0 .886-.11 1.126-.329.24-.217.393-.57.455-1.056l.05-.386c.132-1.033-.408-1.55-1.62-1.55h-3.207l.212-1.668 4.57-4.289 1.21 1.28-3.253 3.01h1.183c.582 0 1.075.072 1.48.215.406.144.727.342.966.596.238.253.398.557.482.907.084.352.097.732.045 1.14l-.124.983c-.13 1.002-.423 1.722-.883 2.16-.46.438-1.167.655-2.123.655h-4.862zM137.355 37.407c-.295 0-.563-.02-.806-.058a4.13 4.13 0 0 1-.587-.134l.455-1.595c.115.022.228.037.333.053.106.015.213.024.323.024.373 0 .657-.11.848-.33.19-.217.317-.571.378-1.056l.79-6.166h2.025l-.639 4.988h1.242c.137 0 .235.068.29.201.058.135.067.35.029.65-.041.327-.082.546-.12.654-.039.11-.089.164-.146.164h-1.51c-.087.537-.227.972-.418 1.31-.192.338-.42.604-.684.798a2.388 2.388 0 0 1-.865.395c-.31.07-.62.102-.938.102"/>
        <path d="M146.984 29.737c-.267 0-.505.074-.715.216a2.162 2.162 0 0 0-.562.582 3.89 3.89 0 0 0-.415.828c-.113.308-.21.648-.288 1.027.252.269.497.46.738.58.241.12.514.18.82.18.414 0 .761-.145 1.046-.433.282-.287.454-.666.514-1.132.074-.575.01-1.027-.19-1.355-.197-.329-.513-.493-.948-.493zm-5.215 5.066c-.246 0-.428-.068-.543-.202-.116-.134-.157-.33-.125-.587.039-.29.11-.507.218-.657.107-.15.24-.223.398-.223h.383a.952.952 0 0 0 .465-.104.867.867 0 0 0 .301-.284c.08-.118.147-.26.203-.423.056-.164.113-.36.172-.587.108-.549.28-1.049.51-1.506.231-.457.511-.85.845-1.178a3.59 3.59 0 0 1 1.146-.759 3.59 3.59 0 0 1 1.388-.267c.56 0 1.046.084 1.46.253.412.17.746.408 1.002.714.257.31.431.67.525 1.087.094.42.11.875.047 1.372a5.182 5.182 0 0 1-.1.549c-.04.171-.086.33-.135.478.102.198.27.358.503.476.23.12.478.179.744.179.136 0 .22.07.245.21.028.138.024.346-.012.623-.025.19-.047.339-.064.447-.02.109-.038.195-.055.254-.019.06-.03.096-.036.111-.008.015-.016.024-.025.024-.159 0-.332-.014-.521-.039a2.446 2.446 0 0 1-1.124-.453 1.605 1.605 0 0 1-.444-.507c-.385.379-.798.65-1.244.812a4.046 4.046 0 0 1-1.405.246c-.462 0-.872-.062-1.226-.187-.352-.122-.706-.346-1.061-.66-.285.305-.567.514-.847.623-.28.11-.652.165-1.115.165h-.473z"/>
        <path d="M151.175 33.134c.306 0 .562-.028.771-.082.21-.054.376-.137.498-.253.123-.113.215-.254.277-.424.06-.169.106-.374.137-.611l1.011-7.907h2.01l-1.057 8.263a4.114 4.114 0 0 1-.314 1.185c-.15.333-.366.61-.646.836-.279.222-.634.388-1.062.497-.428.11-.952.164-1.572.164-.247 0-.429-.068-.543-.2-.116-.135-.157-.33-.125-.588.037-.29.109-.507.217-.657.107-.15.241-.223.398-.223M159.87 23.856l-1.4 10.946h-2.024l1.4-10.946zM7.198 43.969a5.147 5.147 0 0 0-1.1-.297 6.975 6.975 0 0 0-1.11-.09c-.218 0-.43.017-.635.051a1.89 1.89 0 0 0-.564.187c-.17.09-.31.207-.421.35a1.091 1.091 0 0 0-.211.543.942.942 0 0 0 .055.5c.06.142.163.28.31.408.145.13.336.256.571.38.237.125.517.257.844.396.41.179.781.365 1.113.559.328.192.611.417.844.67.234.253.398.544.494.877.095.333.113.733.053 1.199-.068.526-.232.99-.495 1.386a3.372 3.372 0 0 1-.991.983 4.386 4.386 0 0 1-1.321.572 5.912 5.912 0 0 1-1.495.186c-.483 0-.997-.04-1.543-.126A8.24 8.24 0 0 1 0 52.293l.612-1.77a7.04 7.04 0 0 0 2.677.565c.59 0 1.052-.102 1.383-.307.331-.202.53-.511.593-.929a1.09 1.09 0 0 0-.052-.53 1.132 1.132 0 0 0-.32-.431 3.27 3.27 0 0 0-.6-.395 10.924 10.924 0 0 0-.872-.401 7.605 7.605 0 0 1-1.085-.552c-.317-.2-.59-.424-.814-.677a2.274 2.274 0 0 1-.481-.857c-.098-.318-.119-.679-.068-1.086.07-.547.238-1.016.505-1.41.268-.39.597-.71.987-.958a4.358 4.358 0 0 1 1.269-.545c.452-.112.9-.17 1.343-.17.512 0 1.001.031 1.467.096.464.064.879.162 1.248.289l-.594 1.744zM13.382 49.017c-.355 0-.693.019-1.011.053-.32.035-.608.1-.86.194a1.52 1.52 0 0 0-.613.395 1.14 1.14 0 0 0-.282.639c-.042.339.028.6.21.788.184.19.45.286.808.286.293 0 .559-.05.794-.15.233-.099.434-.238.6-.418.165-.178.294-.372.385-.58.09-.207.15-.428.18-.655l.07-.552h-.28zm.473-1.503c.053-.418-.049-.74-.306-.968-.256-.23-.675-.343-1.255-.343-.288 0-.6.03-.944.089-.34.059-.715.16-1.117.297l-.19-1.518a7.67 7.67 0 0 1 1.269-.328 7.618 7.618 0 0 1 1.333-.133c1.28 0 2.185.262 2.715.788.528.527.722 1.267.58 2.22l-.416 3.246c-.035.287-.067.598-.097.931-.028.333-.03.618-.012.857h-1.863a3.177 3.177 0 0 1-.04-.484 6.363 6.363 0 0 1 .002-.484h-.03c-.241.348-.573.626-.993.833a3.143 3.143 0 0 1-1.414.312c-.346 0-.681-.04-1.006-.126a2.299 2.299 0 0 1-.861-.424 1.7 1.7 0 0 1-.547-.752c-.113-.303-.146-.683-.096-1.139.071-.567.258-1.028.56-1.386a2.88 2.88 0 0 1 1.169-.818 6.52 6.52 0 0 1 1.646-.388c.62-.07 1.248-.099 1.89-.089l.023-.193zM22.554 52.652l.135-1.058h-.03a2.41 2.41 0 0 1-1.062.916c-.463.214-.944.32-1.447.32-.441 0-.835-.07-1.176-.21a2.121 2.121 0 0 1-.836-.58 2.238 2.238 0 0 1-.461-.893c-.094-.348-.112-.74-.056-1.176l.662-5.182h2.1l-.563 4.392a4.893 4.893 0 0 0-.042.85c.013.248.063.464.154.647a.911.911 0 0 0 .395.417c.177.095.408.142.693.142.208 0 .414-.04.62-.12.21-.08.401-.2.58-.364a2.15 2.15 0 0 0 .469-.67c.136-.284.229-.63.28-1.035l.546-4.26h2.098l-1.007 7.864h-2.052zM28.924 48.72c-.046.357-.054.69-.025.998.03.309.106.574.223.804.12.228.28.407.486.536.204.129.46.194.765.194s.589-.065.846-.194a2.12 2.12 0 0 0 .672-.528c.192-.225.354-.491.482-.805a3.97 3.97 0 0 0 .263-1.02c.046-.357.045-.692-.006-.998a2.11 2.11 0 0 0-.282-.797 1.479 1.479 0 0 0-.546-.52 1.59 1.59 0 0 0-.781-.187 1.75 1.75 0 0 0-.817.193c-.248.13-.458.308-.63.536a2.95 2.95 0 0 0-.421.797 4.774 4.774 0 0 0-.229.992zm4.49-7.015h2.098L34.11 52.651h-2.054l.128-.998h-.031a3.178 3.178 0 0 1-1.216.902 3.546 3.546 0 0 1-1.343.274c-.532 0-.991-.105-1.377-.318a2.45 2.45 0 0 1-.922-.88 3.512 3.512 0 0 1-.463-1.302 5.651 5.651 0 0 1-.008-1.608 6.134 6.134 0 0 1 .428-1.617c.213-.502.482-.937.81-1.304a3.666 3.666 0 0 1 1.16-.871 3.387 3.387 0 0 1 1.469-.318c.453 0 .872.08 1.253.244.384.164.693.435.93.812h.03l.509-3.962zM39.674 41.748l-.235 1.833h-2.1l.236-1.833h2.1zm-.39 3.04-1.005 7.863h-2.1l1.008-7.862h2.097zM47.274 46.351h1.522c.591 0 1.05-.103 1.378-.312.326-.209.526-.552.596-1.028.032-.259.015-.47-.059-.632a.823.823 0 0 0-.328-.38 1.492 1.492 0 0 0-.516-.186 3.652 3.652 0 0 0-.62-.052h-1.64l-.333 2.59zm-.582 4.558h1.742c.276 0 .527-.02.755-.06.226-.039.432-.111.61-.215.181-.105.328-.247.441-.432.112-.183.185-.414.22-.692.036-.278.012-.51-.073-.693a.972.972 0 0 0-.38-.433 1.819 1.819 0 0 0-.636-.222 4.799 4.799 0 0 0-.843-.067h-1.477l-.36 2.814zm-1.022-8.89h4.404c.463 0 .887.048 1.267.147.38.1.704.259.968.476a1.9 1.9 0 0 1 .57.836c.121.336.15.744.089 1.22-.095.675-.329 1.205-.697 1.587-.37.383-.806.656-1.311.827l-.003.03c.274.08.518.183.728.311a2.1 2.1 0 0 1 .55.491c.156.2.27.443.334.731.067.289.076.626.026 1.014a3.53 3.53 0 0 1-.342 1.131 3.03 3.03 0 0 1-.743.946 3.549 3.549 0 0 1-1.147.648c-.449.158-.968.238-1.56.238h-4.494l1.36-10.634zM59.149 52.652l.136-1.058h-.03a2.41 2.41 0 0 1-1.063.916 3.39 3.39 0 0 1-1.447.32c-.441 0-.835-.07-1.176-.21a2.105 2.105 0 0 1-.835-.58 2.222 2.222 0 0 1-.462-.893c-.094-.348-.112-.74-.056-1.176l.662-5.182h2.1l-.561 4.392a4.765 4.765 0 0 0-.044.85c.013.248.063.464.154.647a.911.911 0 0 0 .395.417c.177.095.408.142.693.142.208 0 .414-.04.62-.12.21-.08.401-.2.58-.364.178-.165.335-.387.47-.67.135-.284.228-.63.28-1.035l.545-4.26h2.098l-1.007 7.864H59.15zM68.832 46.62a5.202 5.202 0 0 0-2.074-.417c-.306 0-.558.047-.758.14-.198.095-.318.26-.36.499-.029.23.049.414.233.553.183.138.546.298 1.084.477.398.128.746.269 1.047.424.301.154.552.33.752.536.201.204.342.435.421.692.08.259.1.56.055.908-.058.447-.201.824-.433 1.132-.232.308-.511.553-.842.738a3.815 3.815 0 0 1-1.093.401c-.4.086-.792.126-1.176.126-.484 0-.983-.049-1.495-.147a6.697 6.697 0 0 1-1.361-.403l.62-1.608c.41.187.836.33 1.283.424a5.64 5.64 0 0 0 1.142.142c.404 0 .72-.053.951-.155a.653.653 0 0 0 .394-.546c.03-.228-.066-.419-.288-.573-.222-.155-.627-.325-1.213-.514-.801-.277-1.368-.604-1.7-.983-.33-.376-.46-.849-.387-1.414.064-.428.2-.794.406-1.102.207-.308.469-.56.786-.76.315-.2.662-.344 1.04-.44.375-.095.75-.139 1.125-.139.413 0 .841.036 1.286.111.445.074.847.185 1.213.334l-.658 1.564zM74.037 41.748l-.235 1.833h-2.098l.233-1.833h2.1zm-.39 3.04-1.005 7.863h-2.098l1.006-7.862h2.098zM77.772 44.788l-.137 1.058h.031a2.399 2.399 0 0 1 1.07-.916c.466-.213.952-.32 1.452-.32.444 0 .834.066 1.172.2.338.135.617.327.835.58.22.255.373.558.46.909.09.355.104.742.05 1.17l-.664 5.182h-2.098l.562-4.394c.042-.316.056-.606.046-.87a1.533 1.533 0 0 0-.147-.648.91.91 0 0 0-.393-.395c-.175-.094-.406-.142-.69-.142a1.732 1.732 0 0 0-1.201.484 2.2 2.2 0 0 0-.486.687 3.272 3.272 0 0 0-.28 1.02l-.544 4.258h-2.1l1.008-7.863h2.054zM88.416 46.04c-.493 0-.924.168-1.292.507-.369.335-.617.778-.746 1.324h3.384c.081-.546-.003-.989-.25-1.324-.249-.34-.615-.508-1.096-.508zm-2.227 3.304c-.006.358.048.654.161.888.112.232.272.423.48.572.209.15.457.26.75.335.29.075.602.112.937.112.297 0 .611-.022.947-.067.336-.045.653-.116.952-.216l.04 1.55a8.568 8.568 0 0 1-2.391.311c-.7 0-1.311-.1-1.83-.297-.523-.197-.95-.48-1.275-.842a3.075 3.075 0 0 1-.693-1.294c-.134-.503-.162-1.056-.084-1.663a5.255 5.255 0 0 1 .486-1.652c.247-.506.561-.944.944-1.31.382-.368.83-.653 1.344-.858a4.543 4.543 0 0 1 1.672-.303c.57 0 1.063.092 1.478.274.417.185.749.447 1.002.782.253.34.424.746.518 1.22.09.479.098 1.014.022 1.609l-.109.85H86.19zM98.333 46.62a5.202 5.202 0 0 0-2.074-.417c-.306 0-.558.047-.758.14-.198.095-.319.26-.36.499-.03.23.049.414.232.553.184.138.546.298 1.085.477.398.128.746.269 1.047.424.3.154.552.33.752.536.2.204.342.435.421.692.08.259.1.56.054.908-.057.447-.2.824-.433 1.132-.232.308-.51.553-.841.738a3.815 3.815 0 0 1-1.094.401c-.4.086-.791.126-1.176.126-.483 0-.982-.049-1.494-.147a6.697 6.697 0 0 1-1.361-.403l.62-1.608c.409.187.836.33 1.282.424a5.64 5.64 0 0 0 1.143.142c.403 0 .72-.053.951-.155a.653.653 0 0 0 .393-.546c.031-.228-.066-.419-.287-.573-.222-.155-.627-.325-1.213-.514-.802-.277-1.368-.604-1.7-.983-.33-.376-.461-.849-.388-1.414.065-.428.201-.794.407-1.102.207-.308.468-.56.785-.76.316-.2.663-.344 1.04-.44.376-.095.75-.139 1.126-.139.412 0 .841.036 1.286.111.445.074.847.185 1.213.334l-.658 1.564zM105.427 46.62a5.202 5.202 0 0 0-2.074-.417c-.306 0-.558.047-.758.14-.198.095-.318.26-.36.499a.565.565 0 0 0 .232.553c.184.138.547.298 1.085.477.398.128.746.269 1.047.424.301.154.552.33.752.536.201.204.342.435.421.692.081.259.1.56.055.908-.058.447-.202.824-.433 1.132-.232.308-.511.553-.842.738a3.815 3.815 0 0 1-1.094.401c-.399.086-.79.126-1.176.126-.483 0-.982-.049-1.494-.147a6.697 6.697 0 0 1-1.361-.403l.62-1.608c.41.187.836.33 1.283.424a5.64 5.64 0 0 0 1.142.142c.404 0 .72-.053.951-.155a.658.658 0 0 0 .395-.546c.03-.228-.067-.419-.289-.573-.222-.155-.627-.325-1.213-.514-.801-.277-1.368-.604-1.7-.983-.33-.376-.46-.849-.387-1.414.064-.428.2-.794.406-1.102.207-.308.469-.56.786-.76.315-.2.662-.344 1.04-.44.375-.095.75-.139 1.125-.139.413 0 .841.036 1.286.111.445.074.847.185 1.213.334l-.658 1.564zM119.263 43.954a5.58 5.58 0 0 0-.884-.269 4.443 4.443 0 0 0-.962-.103c-.562 0-1.068.1-1.524.304a3.534 3.534 0 0 0-1.16.821c-.322.34-.582.745-.783 1.206a5.3 5.3 0 0 0-.404 1.466 4.4 4.4 0 0 0 .037 1.4c.085.446.246.841.483 1.185.237.341.555.615.951.818.398.204.874.304 1.424.304.397 0 .76-.034 1.092-.102.337-.07.654-.17.956-.298l.154 1.682c-.395.16-.82.275-1.28.35a8.545 8.545 0 0 1-1.395.111c-.797 0-1.506-.133-2.121-.4a4.05 4.05 0 0 1-1.527-1.132 4.287 4.287 0 0 1-.843-1.728c-.16-.665-.19-1.4-.085-2.205a7.118 7.118 0 0 1 .645-2.219 6 6 0 0 1 1.273-1.75 5.604 5.604 0 0 1 1.84-1.146 6.328 6.328 0 0 1 2.298-.41c.473 0 .915.035 1.325.105.41.07.778.173 1.105.314l-.615 1.696zM124.242 46.04c-.493 0-.923.168-1.292.507-.368.335-.616.778-.746 1.324h3.385c.08-.546-.005-.989-.251-1.324-.249-.34-.614-.508-1.096-.508zm-2.227 3.304c-.006.358.049.654.162.888.111.232.271.423.48.572.208.15.456.26.748.335.29.075.604.112.937.112.298 0 .612-.022.949-.067.336-.045.653-.116.95-.216l.04 1.55c-.358.098-.73.177-1.117.23a9.131 9.131 0 0 1-1.274.081c-.699 0-1.31-.1-1.83-.297a3.21 3.21 0 0 1-1.275-.842 3.072 3.072 0 0 1-.692-1.294c-.133-.503-.161-1.056-.083-1.663a5.255 5.255 0 0 1 .486-1.652c.246-.506.56-.944.944-1.31.381-.368.83-.653 1.343-.858a4.538 4.538 0 0 1 1.672-.303c.571 0 1.063.092 1.479.274.415.185.748.447 1 .782.255.34.425.746.52 1.22.09.479.098 1.014.021 1.609l-.108.85h-5.352zM131.66 44.788l-.136 1.058h.03a2.407 2.407 0 0 1 1.07-.916c.467-.213.951-.32 1.452-.32.445 0 .835.066 1.171.2.338.135.617.327.837.58.217.255.372.558.458.909.09.355.104.742.05 1.17l-.662 5.182h-2.1l.563-4.394c.042-.316.056-.606.045-.87a1.556 1.556 0 0 0-.145-.648.91.91 0 0 0-.393-.395c-.177-.094-.407-.142-.692-.142-.207 0-.411.037-.614.113a1.8 1.8 0 0 0-.587.371 2.2 2.2 0 0 0-.486.687 3.314 3.314 0 0 0-.277 1.02l-.547 4.258H128.6l1.008-7.863h2.052zM138.06 44.788h1.196l.267-2.086h2.1l-.268 2.086h1.626l-.205 1.593h-1.625l-.45 3.515c-.034.268-.049.487-.046.656.003.168.03.293.085.371.053.08.135.135.245.164.109.03.257.045.445.045.13 0 .245-.003.35-.015.104-.009.223-.024.352-.045l-.201 1.579a12.794 12.794 0 0 1-1.37.074c-.493 0-.882-.049-1.172-.147-.286-.102-.503-.242-.644-.433a1.301 1.301 0 0 1-.251-.707 4.793 4.793 0 0 1 .038-.991l.521-4.066h-1.198l.204-1.593zM147.58 46.04c-.494 0-.924.168-1.293.507-.368.335-.616.778-.745 1.324h3.384c.08-.546-.003-.989-.251-1.324-.248-.34-.614-.508-1.096-.508zm-2.228 3.304c-.006.358.049.654.162.888.113.232.271.423.48.572.208.15.456.26.749.335.29.075.603.112.938.112.296 0 .61-.022.947-.067.336-.045.653-.116.951-.216l.04 1.55a8.568 8.568 0 0 1-2.39.311c-.7 0-1.312-.1-1.831-.297-.523-.197-.949-.48-1.275-.842a3.075 3.075 0 0 1-.693-1.294 4.333 4.333 0 0 1-.083-1.663 5.255 5.255 0 0 1 .486-1.652c.246-.506.56-.944.944-1.31.383-.368.83-.653 1.343-.858a4.543 4.543 0 0 1 1.672-.303c.571 0 1.063.092 1.48.274.416.185.749.447 1.001.782.253.34.425.746.517 1.22.091.479.099 1.014.022 1.609l-.108.85h-5.352zM157.35 46.263a2.941 2.941 0 0 0-.598-.06 2.07 2.07 0 0 0-.74.134c-.24.089-.462.238-.664.448a2.557 2.557 0 0 0-.52.826 4.881 4.881 0 0 0-.308 1.243l-.485 3.797h-2.1l1.008-7.863h2.052l-.129 1.028h.028c.479-.806 1.208-1.205 2.195-1.205a5.026 5.026 0 0 1 .573.028l-.312 1.624zM210.79 32.036a1.22 1.22 0 0 1-1.377.56c-1.024-.295-2.017-.633-3.04-.899-1.002-.296-2.016-.57-3.017-.836-2.026-.52-4.042-.99-6.09-1.358l-.02-.01c-.962-.163-1.61-1.092-1.438-2.071.04-.194.1-.38.192-.542.994-1.827 2.056-3.44 3.211-5.033 1.135-1.591 2.33-3.123 3.657-4.572a1.197 1.197 0 0 1 1.703-.082c.404.377.497.98.253 1.459l-.01.01c-.883 1.716-1.865 3.38-2.827 5.023l-1.447 2.461c-.062.111-.132.213-.194.326 1.348.327 2.675.714 3.982 1.183 1.043.358 2.067.776 3.068 1.225 1.004.47 2.007.94 2.958 1.491.569.347.771 1.082.436 1.665M187.095 29.31a1.733 1.733 0 0 1-.536.183l-.02.01a83.481 83.481 0 0 0-6.09 1.358c-1.012.267-2.015.54-3.028.836-1.013.267-2.005.602-3.029.9h-.01a1.208 1.208 0 0 1-1.49-.838 1.23 1.23 0 0 1 .558-1.387c.951-.552 1.955-1.022 2.948-1.491a37.925 37.925 0 0 1 3.08-1.225 38.426 38.426 0 0 1 3.98-1.184c-.061-.112-.13-.214-.19-.327l-1.451-2.46c-.972-1.644-1.946-3.306-2.835-5.022v-.01a1.22 1.22 0 0 1 .505-1.643 1.207 1.207 0 0 1 1.449.265c1.317 1.45 2.513 2.98 3.657 4.573 1.145 1.591 2.22 3.205 3.21 5.031a1.803 1.803 0 0 1-.708 2.43M199.606 52.001a1.21 1.21 0 0 1-1.448-.49v-.01c-.678-1.102-1.307-2.226-1.976-3.338l-1.915-3.357-1.914-3.34c-.14-.254-.295-.5-.435-.755-.152.256-.303.512-.446.766l-1.895 3.348-1.925 3.358c-.668 1.102-1.317 2.227-2.006 3.318l-.01.01a1.19 1.19 0 0 1-1.66.357 1.212 1.212 0 0 1-.477-1.438c.446-1.235.963-2.42 1.47-3.634a110.476 110.476 0 0 1 1.62-3.552 102.417 102.417 0 0 1 1.784-3.512c.637-1.153 1.255-2.308 2.045-3.471l.02-.03a1.755 1.755 0 0 1 2.452-.48c.201.142.364.316.497.51a46.363 46.363 0 0 1 2.015 3.491 95.512 95.512 0 0 1 1.764 3.512 92 92 0 0 1 1.63 3.552c.518 1.205 1.043 2.388 1.51 3.614a1.22 1.22 0 0 1-.7 1.571M190.682 11.947c-.269-.917-.393-1.834-.481-2.751a26.116 26.116 0 0 1-.087-2.752c.044-1.833.167-3.666.61-5.499a1.233 1.233 0 0 1 1.49-.91c.463.116.801.483.905.92.43 1.836.54 3.67.568 5.504a25.68 25.68 0 0 1-.108 2.748c-.096.92-.23 1.835-.504 2.75-.2.665-.895 1.04-1.556.84a1.267 1.267 0 0 1-.837-.85M215.116 40.211a1.38 1.38 0 0 1-1.631.583h-.01c-1.297-.46-2.583-.95-3.891-1.358a91.016 91.016 0 0 0-3.91-1.216 98.255 98.255 0 0 0-3.779-.969c.842 1.552 1.724 3.104 2.605 4.685a133.16 133.16 0 0 1 2.328 4.34c.721 1.489 1.47 2.968 2.088 4.51a1.368 1.368 0 0 1-2.41 1.276l-5.279-8.145c-1.762-2.737-3.495-5.593-4.974-8.605l-.009-.01a2.06 2.06 0 0 1 .92-2.757 2.015 2.015 0 0 1 1.258-.183c2.865.5 5.683 1.235 8.406 2.235a45.923 45.923 0 0 1 4.013 1.664c1.298.644 2.584 1.286 3.818 2.042.65.398.853 1.256.457 1.908M187.52 35.312l-.01.01c-1.48 3.022-3.202 5.878-4.963 8.615l-5.248 8.168a1.377 1.377 0 0 1-1.894.406 1.39 1.39 0 0 1-.527-1.685c.619-1.541 1.357-3.03 2.078-4.52.747-1.471 1.53-2.92 2.33-4.34.869-1.581 1.751-3.133 2.591-4.685a80.962 80.962 0 0 0-3.777.981 93.112 93.112 0 0 0-3.91 1.213c-1.319.41-2.594.91-3.89 1.369h-.011a1.371 1.371 0 0 1-1.753-.836 1.382 1.382 0 0 1 .578-1.644c1.226-.766 2.512-1.41 3.81-2.052a47.101 47.101 0 0 1 4-1.674c2.726-1.01 5.542-1.746 8.41-2.265a2.04 2.04 0 0 1 2.358 1.673c.083.448.01.888-.171 1.266"/>
        <path d="M210.474 42.792c.886.439 1.675.995 2.43 1.587.747.602 1.46 1.243 2.127 1.935 1.334 1.379 2.591 2.855 3.54 4.6.324.6.107 1.35-.486 1.678-.425.234-.924.19-1.294-.072l-.016-.01c-1.548-1.097-2.91-2.347-4.253-3.637a32.578 32.578 0 0 1-1.937-2.02c-.614-.708-1.208-1.442-1.718-2.274l-.004-.006a1.259 1.259 0 0 1 .41-1.725 1.246 1.246 0 0 1 1.2-.056M174.917 44.557c-.508.834-1.102 1.57-1.712 2.28-.62.702-1.26 1.38-1.93 2.023-1.343 1.293-2.702 2.548-4.247 3.647l-.014.01a1.22 1.22 0 0 1-1.71-.296 1.251 1.251 0 0 1-.076-1.304c.946-1.749 2.198-3.228 3.53-4.61a22.583 22.583 0 0 1 2.121-1.94c.755-.593 1.542-1.152 2.426-1.594a1.24 1.24 0 0 1 1.667.566c.197.398.163.85-.048 1.205l-.007.013zM201.703 10.67c-1.176 2.51-2.491 4.93-3.839 7.329a219.733 219.733 0 0 1-4.224 7.095l-.01.01a2.08 2.08 0 0 1-1.733.959h-.011a2.009 2.009 0 0 1-1.721-.969 252.928 252.928 0 0 1-4.174-7.125 127.104 127.104 0 0 1-1.997-3.614c-.637-1.235-1.295-2.44-1.894-3.685a1.383 1.383 0 0 1 .64-1.848 1.353 1.353 0 0 1 1.682.4c.84 1.092 1.62 2.234 2.42 3.346a194.37 194.37 0 0 1 5.035 7.575c.88-1.409 1.782-2.807 2.704-4.186 1.53-2.297 3.09-4.552 4.803-6.735a1.363 1.363 0 0 1 1.924-.237c.517.41.66 1.113.395 1.685"/>
    </g>
</svg>
