<svg width="72" height="72" viewBox="0 0 72 72" fill="none" xmlns="http://www.w3.org/2000/svg">
<path d="M12 63C10.35 63 8.938 62.413 7.764 61.239C6.59 60.065 6.002 58.652 6 57V24C6 22.35 6.588 20.938 7.764 19.764C8.94 18.59 10.352 18.002 12 18H24V12C24 10.35 24.588 8.938 25.764 7.764C26.94 6.59 28.352 6.002 30 6H42C43.65 6 45.063 6.588 46.239 7.764C47.415 8.94 48.002 10.352 48 12V18H60C61.65 18 63.063 18.588 64.239 19.764C65.415 20.94 66.002 22.352 66 24V57C66 58.65 65.413 60.063 64.239 61.239C63.065 62.415 61.652 63.002 60 63H12ZM30 18H42V12H30V18ZM60 45H45V51H27V45H12V57H60V45ZM33 45H39V39H33V45ZM12 39H27V33H45V39H60V24H12V39Z" fill="#303030"/>
</svg>
