<svg width="72" height="72" viewBox="0 0 72 72" fill="none" xmlns="http://www.w3.org/2000/svg">
<path d="M12 63C15.441 50.94 17.949 38.919 18 27H36C36.051 38.919 38.559 50.94 42 63" stroke="#303030" stroke-width="4" stroke-linecap="round" stroke-linejoin="round"/>
<path d="M37.5 39H51C51.075 46.836 53.682 54.888 57 63M27 15C27.6815 14.0505 28.5839 13.2812 29.6293 12.7585C30.6746 12.2359 31.8315 11.9755 33 12C34.1685 11.9755 35.3254 12.2359 36.3707 12.7585C37.4161 13.2812 38.3185 14.0505 39 15C39.6815 15.9495 40.5839 16.7188 41.6293 17.2414C42.6746 17.7641 43.8315 18.0245 45 18C46.1685 18.0245 47.3254 17.7641 48.3707 17.2414C49.4161 16.7188 50.3185 15.9495 51 15C51.6815 14.0505 52.5839 13.2812 53.6293 12.7585C54.6746 12.2359 55.8315 11.9755 57 12C58.1685 11.9755 59.3254 12.2359 60.3707 12.7585C61.4161 13.2812 62.3185 14.0505 63 15M9 63H66" stroke="#303030" stroke-width="4" stroke-linecap="round" stroke-linejoin="round"/>
</svg>
