<svg width="72" height="72" viewBox="0 0 72 72" fill="none" xmlns="http://www.w3.org/2000/svg">
<path d="M52.9801 33.6C52.2901 32.7 51.4501 31.92 50.6701 31.14C48.6601 29.34 46.3801 28.05 44.4601 26.16C39.9901 21.78 39.0001 14.55 41.8501 9C39.0001 9.69 36.5101 11.25 34.3801 12.96C26.6101 19.2 23.5501 30.21 27.2101 39.66C27.3301 39.96 27.4501 40.26 27.4501 40.65C27.4501 41.31 27.0001 41.91 26.4001 42.15C25.7101 42.45 24.9901 42.27 24.4201 41.79C24.2489 41.6484 24.1063 41.4753 24.0001 41.28C20.6101 36.99 20.0701 30.84 22.3501 25.92C17.3401 30 14.6101 36.9 15.0001 43.41C15.1801 44.91 15.3601 46.41 15.8701 47.91C16.2901 49.71 17.1001 51.51 18.0001 53.1C21.2401 58.29 26.8501 62.01 32.8801 62.76C39.3001 63.57 46.1702 62.4 51.0901 57.96C56.5802 52.98 58.5001 45 55.6801 38.16L55.2901 37.38C54.6601 36 52.9801 33.6 52.9801 33.6ZM43.5001 52.5C42.6601 53.22 41.2801 54 40.2001 54.3C36.8401 55.5 33.4801 53.82 31.5001 51.84C35.0701 51 37.2001 48.36 37.8301 45.69C38.3401 43.29 37.3801 41.31 36.9901 39C36.6301 36.78 36.6901 34.89 37.5001 32.82C38.0701 33.96 38.6701 35.1 39.3901 36C41.7001 39 45.3301 40.32 46.1101 44.4C46.2301 44.82 46.2901 45.24 46.2901 45.69C46.3801 48.15 45.3001 50.85 43.5001 52.5Z" fill="#303030"/>
</svg>
