<svg width="72" height="72" viewBox="0 0 72 72" fill="none" xmlns="http://www.w3.org/2000/svg">
<g clip-path="url(#clip0_67_1499)">
<path d="M63.0001 21C63.7647 21.0008 64.5002 21.2936 65.0562 21.8185C65.6122 22.3435 65.9468 23.0609 65.9916 23.8242C66.0364 24.5875 65.7881 25.3391 65.2973 25.9255C64.8065 26.5119 64.1104 26.8887 63.3511 26.979L63.0001 27V57C63.7647 57.0008 64.5002 57.2936 65.0562 57.8185C65.6122 58.3435 65.9468 59.0609 65.9916 59.8242C66.0364 60.5875 65.7881 61.3391 65.2973 61.9255C64.8065 62.5119 64.1104 62.8887 63.3511 62.979L63.0001 63H9.00009C8.23546 62.9992 7.5 62.7064 6.94399 62.1815C6.38798 61.6565 6.05339 60.9391 6.00858 60.1758C5.96377 59.4125 6.21212 58.6609 6.70289 58.0745C7.19366 57.4881 7.88981 57.1113 8.64909 57.021L9.00009 57V27C8.23546 26.9992 7.5 26.7064 6.94399 26.1815C6.38798 25.6565 6.05339 24.9391 6.00858 24.1758C5.96377 23.4125 6.21212 22.6609 6.70289 22.0745C7.19366 21.4881 7.88981 21.1113 8.64909 21.021L9.00009 21H63.0001ZM57.0001 27H15.0001V57H21.0001V36C21.0001 35.2044 21.3162 34.4413 21.8788 33.8787C22.4414 33.3161 23.2044 33 24.0001 33C24.7957 33 25.5588 33.3161 26.1214 33.8787C26.684 34.4413 27.0001 35.2044 27.0001 36V57H33.0001V36C33.0001 35.2044 33.3162 34.4413 33.8788 33.8787C34.4414 33.3161 35.2044 33 36.0001 33C36.7957 33 37.5588 33.3161 38.1214 33.8787C38.684 34.4413 39.0001 35.2044 39.0001 36V57H45.0001V36C45.0001 35.2044 45.3162 34.4413 45.8788 33.8787C46.4414 33.3161 47.2044 33 48.0001 33C48.7957 33 49.5588 33.3161 50.1214 33.8787C50.684 34.4413 51.0001 35.2044 51.0001 36V57H57.0001V27ZM54.0001 12C54.7957 12 55.5588 12.3161 56.1214 12.8787C56.684 13.4413 57.0001 14.2044 57.0001 15C57.0001 15.7956 56.684 16.5587 56.1214 17.1213C55.5588 17.6839 54.7957 18 54.0001 18H18.0001C17.2044 18 16.4414 17.6839 15.8788 17.1213C15.3162 16.5587 15.0001 15.7956 15.0001 15C15.0001 14.2044 15.3162 13.4413 15.8788 12.8787C16.4414 12.3161 17.2044 12 18.0001 12H54.0001Z" fill="#303030"/>
</g>
<defs>
<clipPath id="clip0_67_1499">
<rect width="72" height="72" fill="white"/>
</clipPath>
</defs>
</svg>
