<svg width="72" height="72" viewBox="0 0 72 72" fill="none" xmlns="http://www.w3.org/2000/svg">
<path fill-rule="evenodd" clip-rule="evenodd" d="M35.9955 4.5C36.7111 4.49922 37.4084 4.72591 37.9867 5.14733C38.5651 5.56875 38.9945 6.16308 39.213 6.8445L54 53.055L59.787 34.974C60.0045 34.2925 60.4329 33.6977 61.0104 33.2755C61.5879 32.8533 62.2846 32.6255 63 32.625H68.625C69.5201 32.625 70.3785 32.9806 71.0115 33.6135C71.6444 34.2465 72 35.1049 72 36C72 36.8951 71.6444 37.7536 71.0115 38.3865C70.3785 39.0194 69.5201 39.375 68.625 39.375H65.4615L57.213 65.1555C56.9943 65.8357 56.5654 66.4289 55.988 66.8498C55.4106 67.2707 54.7145 67.4974 54 67.4974C53.2855 67.4974 52.5894 67.2707 52.012 66.8498C51.4346 66.4289 51.0057 65.8357 50.787 65.1555L36.0225 19.017L25.7175 51.642C25.5049 52.3143 25.0871 52.9031 24.5227 53.3258C23.9584 53.7484 23.2758 53.9837 22.5709 53.9986C21.8659 54.0135 21.174 53.8072 20.5923 53.4088C20.0106 53.0103 19.5683 52.4397 19.3275 51.777L13.6395 36.135L13.3245 37.071C13.1008 37.7428 12.6714 38.3272 12.0972 38.7415C11.523 39.1558 10.8331 39.379 10.125 39.3795H3.375C2.47989 39.3795 1.62145 39.0239 0.988515 38.391C0.355579 37.7581 0 36.8996 0 36.0045C0 35.1094 0.355579 34.251 0.988515 33.618C1.62145 32.9851 2.47989 32.6295 3.375 32.6295H7.695L10.296 24.813C10.5165 24.1472 10.9389 23.5667 11.5046 23.1521C12.0702 22.7374 12.751 22.5093 13.4522 22.4994C14.1535 22.4895 14.8404 22.6983 15.4175 23.0968C15.9947 23.4953 16.4333 24.0637 16.6725 24.723L22.275 40.1355L32.7825 6.8625C32.9976 6.17846 33.425 5.58071 34.0027 5.15592C34.5804 4.73114 35.2784 4.50139 35.9955 4.5Z" fill="#303030"/>
</svg>
