<svg width="72" height="72" viewBox="0 0 72 72" fill="none" xmlns="http://www.w3.org/2000/svg">
<path d="M37.5471 66.6562L37.4346 66.638C37.4503 66.6501 37.4689 66.6582 37.4885 66.6614C37.5082 66.6646 37.5283 66.6628 37.5471 66.6562ZM63.1268 26.4066C63.0947 26.2369 63.0069 26.0828 62.8772 25.9687C62.7475 25.8547 62.5835 25.7872 62.4111 25.777C62.2387 25.7669 62.0679 25.8146 61.9257 25.9126C61.7835 26.0106 61.6781 26.1532 61.6263 26.318C61.5767 26.4744 61.4788 26.611 61.3466 26.7083C61.2145 26.8055 61.0549 26.8584 60.8908 26.8594H58.7154C58.5746 26.8595 58.4365 26.8211 58.316 26.7483L55.1688 24.8611C55.0483 24.7883 54.9102 24.7499 54.7694 24.75H49.7351C49.5818 24.7498 49.432 24.7954 49.3047 24.8808L43.0962 29.0194C42.9888 29.0908 42.901 29.1879 42.8406 29.3018C42.7802 29.4158 42.7492 29.5429 42.7502 29.6719V35.5416C42.7501 35.6822 42.7882 35.8203 42.8605 35.941C42.9329 36.0616 43.0367 36.1603 43.1609 36.2264L51.3016 40.5717C51.4239 40.6375 51.5265 40.7348 51.5987 40.8534C51.6708 40.9721 51.7101 41.1078 51.7123 41.2467L51.7502 44.55C51.7524 44.6867 51.7906 44.8205 51.8609 44.9378C51.9313 45.0551 52.0314 45.1517 52.151 45.218L55.4219 47.0278C55.5431 47.0951 55.6442 47.1936 55.7146 47.313C55.7851 47.4324 55.8224 47.5684 55.8227 47.707V54.5414C55.8227 54.6908 55.8659 54.8369 55.9469 54.9624C56.0279 55.0879 56.1434 55.1873 56.2796 55.2488C56.4157 55.3102 56.5667 55.3311 56.7144 55.3089C56.862 55.2867 57.0002 55.2224 57.1123 55.1236C58.4313 53.962 60.3227 52.2661 60.5744 51.878C60.9907 51.2339 61.3812 50.5744 61.7458 49.8994C62.5011 48.5008 63.1407 47.0428 63.6583 45.54C65.4415 40.3777 64.0324 31.0978 63.1268 26.4066ZM40.2752 42.5812L31.6507 36.1125C31.5533 36.0395 31.4349 36 31.3132 36H27.221C27.151 36.0001 27.0817 35.9863 27.017 35.9595C26.9523 35.9328 26.8936 35.8935 26.8441 35.8439L24.9148 33.9145C24.8625 33.8623 24.8004 33.8209 24.7321 33.7927C24.6639 33.7644 24.5907 33.7499 24.5168 33.75H17.0369C16.9315 33.75 16.8285 33.7187 16.7408 33.6602C16.6532 33.6016 16.5849 33.5184 16.5445 33.421C16.5042 33.3236 16.4936 33.2164 16.5142 33.113C16.5348 33.0097 16.5855 32.9147 16.6601 32.8402L17.8441 31.6561C17.8936 31.6065 17.9523 31.5672 18.017 31.5405C18.0817 31.5137 18.151 31.4999 18.221 31.5H22.773C23.0182 31.5 23.2567 31.4199 23.4521 31.2719C23.6476 31.1239 23.7893 30.9161 23.8558 30.6802L24.8248 27.2348C24.8454 27.1608 24.881 27.0918 24.9294 27.032C24.9778 26.9723 25.0379 26.9231 25.106 26.8875L28.969 24.8991C29.0559 24.8541 29.1288 24.7862 29.1796 24.7026C29.2305 24.619 29.2573 24.523 29.2573 24.4252V22.6673C29.2574 22.5583 29.2908 22.4518 29.3529 22.3622L31.406 19.4062C31.4676 19.3174 31.555 19.2497 31.6563 19.2122L34.5293 18.1336C34.6309 18.0955 34.7185 18.0273 34.7803 17.9381C34.8421 17.8489 34.8753 17.7429 34.8752 17.6344V16.0312C34.8752 15.9433 34.8535 15.8568 34.8121 15.7793C34.7706 15.7018 34.7107 15.6357 34.6376 15.5869L31.7576 13.6716C31.6784 13.6195 31.587 13.5892 31.4924 13.5838C31.3979 13.5784 31.3035 13.598 31.219 13.6406L27.2983 15.6009C27.2087 15.6452 27.1083 15.6633 27.0088 15.6531C26.9093 15.6429 26.8147 15.6048 26.7358 15.5433L24.8768 14.0738C24.8133 14.0227 24.7624 13.9579 24.7278 13.8842C24.6933 13.8105 24.676 13.7298 24.6774 13.6484C24.6787 13.567 24.6987 13.487 24.7357 13.4145C24.7727 13.342 24.8257 13.2789 24.8908 13.23L26.4012 12.1177C26.4695 12.0675 26.5249 12.0017 26.5627 11.9258C26.6005 11.8499 26.6195 11.766 26.6183 11.6813C26.617 11.5965 26.5955 11.5132 26.5556 11.4384C26.5156 11.3637 26.4583 11.2995 26.3885 11.2514L24.0358 9.61031C23.9544 9.55297 23.8585 9.51967 23.759 9.5142C23.6596 9.50873 23.5606 9.53131 23.4733 9.57938C22.6226 10.0448 20.1265 11.423 19.2405 12.0431C15.1415 14.9177 11.8426 18.7895 9.65554 23.2931C9.3996 23.8219 9.08319 24.3605 9.05225 24.9412C9.02132 25.522 8.56569 26.8186 8.37585 27.3431C8.35024 27.414 8.34001 27.4896 8.34582 27.5647C8.35164 27.6399 8.37338 27.7129 8.4096 27.7791L13.4285 37.0012C13.4737 37.0851 13.5407 37.1551 13.6226 37.2037L18.903 40.3734C18.9715 40.4142 19.03 40.4699 19.074 40.5364C19.1181 40.6028 19.1466 40.6784 19.1576 40.7573L20.2151 48.427C20.2254 48.5005 20.2509 48.5711 20.2898 48.6343C20.3288 48.6974 20.3804 48.7518 20.4415 48.7941L24.5618 51.6263C24.6811 51.7083 24.7643 51.8332 24.7938 51.975L26.9791 62.3531C26.9914 62.4141 27.0147 62.4722 27.048 62.5247C27.2533 62.8566 28.0718 64.0716 29.059 64.2516C28.9676 64.2769 28.886 64.3345 28.7946 64.3613C29.0317 64.4029 29.2664 64.4574 29.4977 64.5244C29.779 64.6003 30.0602 64.665 30.3415 64.7255C30.7816 64.8127 30.8252 64.8802 31.0362 64.4892C31.3174 63.9661 31.6394 63.7861 31.8799 63.7214C31.9792 63.6985 32.0699 63.6481 32.1418 63.576C32.2137 63.5039 32.2638 63.4129 32.2863 63.3136L33.7024 56.7492C33.7322 56.6116 33.8125 56.4902 33.9274 56.4089L40.2555 51.923C40.3291 51.871 40.389 51.802 40.4304 51.722C40.4718 51.642 40.4933 51.5532 40.4932 51.4631V43.0312C40.494 42.9445 40.4748 42.8588 40.437 42.7807C40.3991 42.7026 40.3438 42.6344 40.2752 42.5812Z" fill="#303030"/>
<path d="M36.8435 6.75C36.8435 6.75 36.3302 6.77953 36.2262 6.78234C35.464 6.80484 34.7037 6.85734 33.9452 6.93984C31.1804 7.23978 28.4727 7.93352 25.9043 9C26.246 9.23625 25.6582 9.45281 25.6582 9.45281L26.5779 11.25H31.4998L34.8748 12.9375L37.8279 11.25L36.8435 6.75ZM49.8134 16.8834L52.0788 14.9147C52.1497 14.8531 52.2041 14.7748 52.237 14.6869C52.2699 14.5989 52.2802 14.5041 52.2671 14.4112C52.2539 14.3182 52.2177 14.23 52.1618 14.1546C52.1058 14.0792 52.0318 14.019 51.9466 13.9795L49.3015 12.7519C49.1671 12.6892 49.0134 12.6821 48.8739 12.7321C48.7343 12.7822 48.6201 12.8853 48.5562 13.0191L47.4663 15.2986C47.407 15.4232 47.3956 15.5653 47.4342 15.6978C47.4729 15.8303 47.5589 15.944 47.6759 16.0172L49.1468 16.9369C49.249 17.0005 49.3689 17.0296 49.4889 17.02C49.6089 17.0103 49.7226 16.9625 49.8134 16.8834ZM60.4179 19.7817L59.598 18.5161C59.5854 18.4964 59.5741 18.4767 59.5629 18.4556C59.4152 18.1533 58.1932 15.6853 57.1723 14.7277C56.4059 14.0034 56.1879 14.2116 56.1274 14.3719C56.0928 14.4605 56.035 14.5383 55.9601 14.5969L51.9045 17.8748C51.8045 17.9557 51.68 17.9998 51.5515 18H49.452C49.3781 17.9999 49.3049 18.0144 49.2366 18.0427C49.1683 18.0709 49.1063 18.1123 49.054 18.1645L47.3665 19.852C47.3142 19.9043 47.2727 19.9663 47.2444 20.0346C47.2161 20.1029 47.2015 20.1761 47.2015 20.25C47.2015 20.3239 47.2161 20.3971 47.2444 20.4654C47.2727 20.5337 47.3142 20.5957 47.3665 20.648L49.054 22.3355C49.1063 22.3877 49.1683 22.4291 49.2366 22.4573C49.3049 22.4856 49.3781 22.5001 49.452 22.5H60.0227C60.0987 22.5001 60.1738 22.4848 60.2437 22.455C60.3135 22.4253 60.3766 22.3817 60.4292 22.3269C60.4817 22.2721 60.5227 22.2072 60.5495 22.1362C60.5763 22.0652 60.5885 21.9894 60.5852 21.9136L60.5079 20.0644C60.5037 19.9638 60.4726 19.8662 60.4179 19.7817Z" fill="#303030"/>
<path d="M36 10.125C41.9863 10.1245 47.7877 12.1997 52.4155 15.997C57.0433 19.7944 60.2113 25.0789 61.3796 30.9501C62.5479 36.8213 61.6443 42.916 58.8228 48.1957C56.0012 53.4754 51.4363 57.6134 45.9058 59.9047C40.3753 62.1959 34.2214 62.4987 28.4927 60.7613C22.764 59.024 17.815 55.354 14.4888 50.3768C11.1626 45.3995 9.66519 39.423 10.2516 33.4654C10.838 27.5078 13.472 21.9379 17.7047 17.7047C20.1015 15.2942 22.9526 13.3831 26.093 12.0821C29.2334 10.781 32.6007 10.1158 36 10.125ZM36 4.5C18.6047 4.5 4.5 18.6047 4.5 36C4.5 53.3953 18.6047 67.5 36 67.5C53.3953 67.5 67.5 53.3953 67.5 36C67.5 18.6047 53.3953 4.5 36 4.5Z" fill="#303030"/>
</svg>
