<svg width="70" height="60" viewBox="0 0 70 60" fill="none" xmlns="http://www.w3.org/2000/svg">
<path d="M37.25 2.25V7.5H43.175C44.228 7.5 45.257 7.818 46.127 8.409L51.218 11.871C51.341 11.955 51.488 12 51.638 12H63.944C64.5407 12 65.113 12.2371 65.535 12.659C65.9569 13.081 66.194 13.6533 66.194 14.25C66.194 14.8467 65.9569 15.419 65.535 15.841C65.113 16.2629 64.5407 16.5 63.944 16.5H59.21L69.308 39.54C69.5105 40.0006 69.5526 40.5159 69.4275 41.0033C69.3024 41.4906 69.0173 41.9219 68.618 42.228C68.318 42.45 68.009 42.657 67.688 42.846C66.927 43.3001 66.1351 43.7001 65.318 44.043C62.6044 45.1778 59.6912 45.7582 56.75 45.75C53.8099 45.7593 50.8976 45.1799 48.185 44.046C47.3674 43.7029 46.5754 43.3019 45.815 42.846C45.4966 42.6618 45.1891 42.4594 44.894 42.24L44.879 42.228C44.4796 41.9219 44.1945 41.4906 44.0694 41.0033C43.9443 40.5159 43.9864 40.0006 44.189 39.54L54.293 16.5H51.635C50.582 16.5 49.553 16.182 48.683 15.591L43.592 12.129C43.4683 12.0444 43.3218 11.9994 43.172 12H37.25V55.5H50.711C51.3077 55.5 51.88 55.7371 52.3019 56.159C52.7239 56.581 52.961 57.1533 52.961 57.75C52.961 58.3467 52.7239 58.919 52.3019 59.341C51.88 59.7629 51.3077 60 50.711 60H19.289C18.6922 60 18.1199 59.7629 17.698 59.341C17.276 58.919 17.039 58.3467 17.039 57.75C17.039 57.1533 17.276 56.581 17.698 56.159C18.1199 55.7371 18.6922 55.5 19.289 55.5H32.75V12H26.825C26.6752 11.9999 26.5289 12.0449 26.405 12.129L21.317 15.591C20.447 16.182 19.418 16.5 18.365 16.5H15.707L25.811 39.54C26.0065 39.9876 26.0511 40.4867 25.938 40.9619C25.8249 41.437 25.5602 41.8625 25.184 42.174C24.944 42.369 24.704 42.552 24.254 42.843C23.4953 43.3343 22.7011 43.7685 21.878 44.142C19.1684 45.3729 16.226 46.0072 13.25 46.002C10.2738 46.0083 7.33118 45.3739 4.62196 44.142C3.79885 43.7685 3.00466 43.3343 2.24596 42.843C1.92513 42.639 1.61567 42.4177 1.31896 42.18C0.945692 41.865 0.683135 41.4387 0.569762 40.9636C0.456389 40.4885 0.498161 39.9896 0.688958 39.54L10.79 16.5H6.05896C5.46222 16.5 4.88992 16.2629 4.46797 15.841C4.04601 15.419 3.80896 14.8467 3.80896 14.25C3.80896 13.6533 4.04601 13.081 4.46797 12.659C4.88992 12.2371 5.46222 12 6.05896 12H18.365C18.515 12 18.662 11.955 18.788 11.871L23.873 8.409C24.743 7.815 25.775 7.5 26.828 7.5H32.75V2.25C32.75 1.65326 32.987 1.08097 33.409 0.659009C33.8309 0.237053 34.4032 0 35 0C35.5967 0 36.169 0.237053 36.5909 0.659009C37.0129 1.08097 37.25 1.65326 37.25 2.25ZM5.57896 39.594C7.94008 40.851 10.5751 41.5053 13.25 41.499C15.9248 41.5053 18.5598 40.851 20.921 39.594L13.25 22.104L5.57896 39.594ZM49.109 39.522C49.355 39.642 49.631 39.771 49.934 39.9C51.524 40.569 53.849 41.25 56.75 41.25C59.3947 41.2574 62.0068 40.6667 64.391 39.522L56.75 22.101L49.109 39.522Z" fill="#303030"/>
</svg>
