<svg width="72" height="72" viewBox="0 0 72 72" fill="none" xmlns="http://www.w3.org/2000/svg">
<path d="M38.1602 32.4C36.7202 32.04 35.2802 31.32 34.2002 30.24C33.1202 29.88 32.7602 28.8 32.7602 28.08C32.7602 27.36 33.1202 26.28 33.8402 25.92C34.9202 25.2 36.0002 24.48 37.0802 24.84C39.2402 24.84 41.0402 25.92 42.1202 27.36L45.3602 23.04C44.2802 21.96 43.2002 21.24 42.1202 20.52C41.0402 19.8 39.6002 19.44 38.1602 19.44V14.4H33.8402V19.44C32.0402 19.8 30.2402 20.88 28.8002 22.32C27.3602 24.12 26.2802 26.28 26.6402 28.44C26.6402 30.6 27.3602 32.76 28.8002 34.2C30.6002 36 33.1202 37.08 35.2802 38.16C36.3602 38.52 37.8002 39.24 38.8802 39.96C39.6002 40.68 39.9602 41.76 39.9602 42.84C39.9602 43.92 39.6002 45 38.8802 46.08C37.8002 47.16 36.3602 47.52 35.2802 47.52C33.8402 47.52 32.0402 47.16 30.9602 46.08C29.8802 45.36 28.8002 44.28 28.0802 43.2L24.4802 47.16C25.5602 48.6 26.6402 49.68 28.0802 50.76C29.8802 51.84 32.0402 52.92 34.2002 52.92V57.6H38.1602V52.2C40.3202 51.84 42.1202 50.76 43.5602 49.32C45.3602 47.52 46.4402 44.64 46.4402 42.12C46.4402 39.96 45.7202 37.44 43.9202 36C42.1202 34.2 40.3202 33.12 38.1602 32.4ZM36.0002 7.20001C20.1602 7.20001 7.2002 20.16 7.2002 36C7.2002 51.84 20.1602 64.8 36.0002 64.8C51.8402 64.8 64.8002 51.84 64.8002 36C64.8002 20.16 51.8402 7.20001 36.0002 7.20001ZM36.0002 60.84C22.3202 60.84 11.1602 49.68 11.1602 36C11.1602 22.32 22.3202 11.16 36.0002 11.16C49.6802 11.16 60.8402 22.32 60.8402 36C60.8402 49.68 49.6802 60.84 36.0002 60.84Z" fill="#303030"/>
</svg>
