<svg width="72" height="72" viewBox="0 0 72 72" fill="none" xmlns="http://www.w3.org/2000/svg">
<path d="M63 19.5V42H57V22.5L42 12L27 22.5V27H21V19.5L42 4.5L63 19.5ZM46.5 21H43.5V24H46.5V21ZM40.5 21H37.5V24H40.5V21ZM46.5 27H43.5V30H46.5V27ZM40.5 27H37.5V30H40.5V27ZM57 48H51C51 44.4 48.75 41.16 45.39 39.9L26.91 33H3V66H21V61.68L42 67.5L66 60V57C66 52.02 61.98 48 57 48ZM9 60V39H15V60H9ZM41.91 61.23L21 55.44V39H25.83L43.29 45.51C44.31 45.9 45 46.89 45 48C45 48 39.03 47.85 38.1 47.55L30.96 45.18L29.07 50.88L36.21 53.25C37.74 53.76 39.33 54.03 40.95 54.03H57C58.17 54.03 59.22 54.72 59.7 55.71L41.91 61.23Z" fill="#303030"/>
</svg>
