<svg width="72" height="72" viewBox="0 0 72 72" fill="none" xmlns="http://www.w3.org/2000/svg">
<path d="M58.572 41.886C60.2396 39.8056 61.478 37.4153 62.2157 34.8531C62.9533 32.291 63.1756 29.6081 62.8695 26.9595C61.1404 27.7302 59.2681 28.1274 57.375 28.125C54.5697 28.1298 51.8333 27.2565 49.5495 25.6275L45.9315 29.25L58.572 41.886ZM55.3905 45.072L41.2335 30.915C41.1801 30.8664 41.1291 30.8153 41.0805 30.762L26.928 16.605C25.3395 18.585 24.12 20.871 23.364 23.355C21.8893 23.0162 20.3934 22.7771 18.8865 22.6395C20.5689 16.5654 24.5045 11.3616 29.891 8.08892C35.2775 4.81621 41.7094 3.72098 47.8755 5.02649C51.658 5.834 55.1997 7.51364 58.2184 9.9316C61.2372 12.3496 63.6496 15.4391 65.2635 18.954C66.0105 20.592 66.5865 22.3155 66.969 24.12C68.2732 30.2854 67.1774 36.7162 63.9048 42.1017C60.6322 47.4872 55.4291 51.4221 49.356 53.1045C49.2171 51.5975 48.9765 50.1016 48.636 48.627C51.0917 47.88 53.3825 46.672 55.386 45.0675M61.821 22.446C61.0667 20.3317 59.9657 18.3577 58.563 16.605L52.794 22.374C54.1596 23.1807 55.7141 23.6123 57.3001 23.6249C58.8861 23.6376 60.4473 23.2309 61.8255 22.446M49.6215 19.188L55.386 13.428C53.6365 12.0245 51.6655 10.9219 49.554 10.1655C48.8025 11.4795 48.375 13.0005 48.375 14.6205C48.375 16.2855 48.825 17.8515 49.6215 19.188ZM45.0405 9.13499C42.3912 8.82833 39.7074 9.05026 37.1445 9.78793C34.5815 10.5256 32.1904 11.7644 30.1095 13.4325L42.75 26.064L46.368 22.446C44.7415 20.1629 43.8698 17.4282 43.875 14.625C43.875 12.6675 44.2935 10.809 45.045 9.13049M11.25 31.5C10.6533 31.5 10.081 31.737 9.65901 32.159C9.23705 32.581 9 33.1533 9 33.75V38.25C9 44.8141 11.6076 51.1094 16.2491 55.7509C20.8906 60.3924 27.1859 63 33.75 63H38.25C38.8467 63 39.419 62.7629 39.841 62.341C40.2629 61.919 40.5 61.3467 40.5 60.75V56.25C40.5 52.9998 39.8598 49.7814 38.616 46.7786C37.3722 43.7758 35.5491 41.0473 33.2509 38.7491C30.9526 36.4508 28.2242 34.6278 25.2214 33.384C22.2186 32.1402 19.0002 31.5 15.75 31.5H11.25ZM4.5 33.75C4.5 31.9598 5.21116 30.2429 6.47703 28.977C7.7429 27.7112 9.45979 27 11.25 27H15.75C23.5076 27 30.9474 30.0817 36.4329 35.5671C41.9183 41.0526 45 48.4924 45 56.25V60.75C45 62.5402 44.2888 64.2571 43.023 65.523C41.7571 66.7888 40.0402 67.5 38.25 67.5H33.75C25.9924 67.5 18.5526 64.4183 13.0671 58.9329C7.58169 53.4474 4.5 46.0076 4.5 38.25V33.75ZM19.782 42.282C19.991 42.0725 20.2393 41.9062 20.5126 41.7928C20.786 41.6794 21.079 41.621 21.375 41.621C21.671 41.621 21.964 41.6794 22.2374 41.7928C22.5107 41.9062 22.759 42.0725 22.968 42.282L29.718 49.032C29.9272 49.2412 30.0931 49.4895 30.2064 49.7629C30.3196 50.0362 30.3778 50.3291 30.3778 50.625C30.3778 50.9208 30.3196 51.2138 30.2064 51.4871C30.0931 51.7604 29.9272 52.0088 29.718 52.218C29.5088 52.4272 29.2605 52.5931 28.9871 52.7063C28.7138 52.8196 28.4208 52.8778 28.125 52.8778C27.8292 52.8778 27.5362 52.8196 27.2629 52.7063C26.9895 52.5931 26.7412 52.4272 26.532 52.218L19.782 45.468C19.5725 45.259 19.4062 45.0107 19.2928 44.7373C19.1794 44.464 19.121 44.1709 19.121 43.875C19.121 43.579 19.1794 43.286 19.2928 43.0126C19.4062 42.7393 19.5725 42.491 19.782 42.282Z" fill="#303030"/>
</svg>
