<svg width="36" height="36" viewBox="0 0 36 36" fill="none" xmlns="http://www.w3.org/2000/svg">
<circle cx="18" cy="18" r="18" fill="#EEEEEE"/>
<path d="M24.352 13.636C24.1645 13.4485 23.9102 13.3432 23.645 13.3432C23.3798 13.3432 23.1255 13.4485 22.938 13.636L17.988 18.586L13.038 13.636C12.8494 13.4538 12.5968 13.353 12.3346 13.3553C12.0724 13.3576 11.8216 13.4628 11.6362 13.6482C11.4508 13.8336 11.3456 14.0844 11.3433 14.3466C11.341 14.6088 11.4418 14.8614 11.624 15.05L17.281 20.707C17.4685 20.8945 17.7228 20.9998 17.988 20.9998C18.2532 20.9998 18.5075 20.8945 18.695 20.707L24.352 15.05C24.5395 14.8625 24.6448 14.6082 24.6448 14.343C24.6448 14.0778 24.5395 13.8235 24.352 13.636Z" fill="#303030"/>
</svg>
