<svg width="220" height="82" viewBox="0 0 220 82" fill="none" xmlns="http://www.w3.org/2000/svg">
    <path
        d="M88.3906 52.0195H84.0547V52.8398C84.0547 54.7539 82.2904 55.9648 78.7617 56.4727C77.6289 56.6289 75.0508 56.2513 71.0273 55.3398C75.7148 55.5352 78.0195 54.5065 77.9414 52.2539V35.0859C80.4805 34.7344 82.5117 33.6927 84.0352 31.9609V32.1953L84.0547 32.0391V48.9531H88.3906V52.0195ZM95.5195 52.0391H85.8711V48.9531H89.4258V35.2227C91.9648 34.8451 93.9961 33.7969 95.5195 32.0781V52.0391ZM91.4375 55.8477V57.957C91.4375 58.6602 91.0794 59.0117 90.3633 59.0117H88.2539C87.5508 59.0117 87.1992 58.6602 87.1992 57.957V55.8477C87.1992 55.1576 87.5508 54.8125 88.2539 54.8125H90.3633C91.0794 54.8125 91.4375 55.1576 91.4375 55.8477ZM96.0078 55.8477V57.957C96.0078 58.6602 95.6497 59.0117 94.9336 59.0117H92.8242C92.1211 59.0117 91.7695 58.6602 91.7695 57.957V55.8477C91.7695 55.1576 92.1211 54.8125 92.8242 54.8125H94.9336C95.6497 54.8125 96.0078 55.1576 96.0078 55.8477ZM110.402 31.7656V31.9805L110.422 31.8047V52.8008C110.422 54.7279 108.658 55.9453 105.129 56.4531C103.996 56.6094 101.418 56.2318 97.3945 55.3203C102.082 55.4896 104.387 54.4609 104.309 52.2344V34.9102C106.848 34.5586 108.879 33.5104 110.402 31.7656ZM112.316 52.0391V14.9883C113.827 16.707 115.852 17.7487 118.391 18.1133V48.9531H122.102V52.0391H112.316ZM135.051 25.5938V27.6836C135.051 28.3867 134.693 28.7383 133.977 28.7383H131.867C131.177 28.7383 130.832 28.3867 130.832 27.6836V25.5938C130.832 24.9036 131.177 24.5586 131.867 24.5586H133.977C134.693 24.5586 135.051 24.9036 135.051 25.5938ZM130.129 25.5938V27.6836C130.129 28.3867 129.777 28.7383 129.074 28.7383H126.965C126.262 28.7383 125.91 28.3867 125.91 27.6836V25.5938C125.91 24.9036 126.262 24.5586 126.965 24.5586H129.074C129.777 24.5586 130.129 24.9036 130.129 25.5938ZM141.73 52.0391H119.641V48.9531H123.273V34.4023C123.273 32.8789 125.669 32.1172 130.461 32.1172C135.396 32.1172 137.863 32.944 137.863 34.5977V48.9531H141.73V52.0391ZM131.77 48.9531V34.5977C131.77 34.2852 131.372 34.1224 130.578 34.1094C129.758 34.0964 129.348 34.2591 129.348 34.5977V48.9531H131.77ZM149.113 52.0391H139.465V48.9531H143.02V35.2227C145.559 34.8451 147.59 33.7969 149.113 32.0781V52.0391ZM145.031 25.6133V27.7227C145.031 28.3997 144.673 28.7383 143.957 28.7383H141.848C141.145 28.7383 140.793 28.3997 140.793 27.7227V25.6133C140.793 24.9102 141.145 24.5586 141.848 24.5586H143.957C144.673 24.5586 145.031 24.9102 145.031 25.6133ZM149.758 25.6133V27.7227C149.758 28.3997 149.406 28.7383 148.703 28.7383H146.555C145.878 28.7383 145.539 28.3997 145.539 27.7227V25.6133C145.539 24.9102 145.878 24.5586 146.555 24.5586H148.703C149.406 24.5586 149.758 24.9102 149.758 25.6133Z"
        fill="black" />
</svg>