<svg width="29" height="21" viewBox="0 0 29 21" fill="none" xmlns="http://www.w3.org/2000/svg">
<ellipse cx="5" cy="4.99003" rx="5" ry="4.99003" transform="matrix(-1 0 0 1 26.2583 10.6639)" fill="#3B5998"/>
<path d="M25.6781 0.515902C26.7121 0.125257 27.8665 0.64565 28.2565 1.67823C28.6466 2.71082 28.1245 3.86457 27.0905 4.25522L25.6781 0.515902ZM17.8192 19.6172C16.3444 17.0711 15.9946 13.2085 17.0791 9.61625C18.1943 5.92222 20.8776 2.32948 25.6781 0.515902L27.0905 4.25522C23.5893 5.57792 21.7096 8.12038 20.9106 10.7672C20.0808 13.5157 20.4653 16.1995 21.2836 17.6122L17.8192 19.6172Z" fill="#3B5998"/>
<ellipse cx="5" cy="4.99003" rx="5" ry="4.99003" transform="matrix(-1 0 0 1 10.2583 10.6639)" fill="#3B5998"/>
<path d="M9.6781 0.515902C10.7121 0.125257 11.8665 0.64565 12.2565 1.67823C12.6466 2.71082 12.1245 3.86457 11.0905 4.25522L9.6781 0.515902ZM1.81921 19.6172C0.344402 17.0711 -0.00542398 13.2085 1.07909 9.61625C2.19433 5.92222 4.87764 2.32948 9.6781 0.515902L11.0905 4.25522C7.58931 5.57792 5.70963 8.12038 4.91056 10.7672C4.08076 13.5157 4.4653 16.1995 5.2836 17.6122L1.81921 19.6172Z" fill="#3B5998"/>
</svg>
