<svg width="24" height="27" viewBox="0 0 24 27" fill="none" xmlns="http://www.w3.org/2000/svg">
	<path
		d="M18.031 17.8876L22.314 22.4463L20.899 23.9527L16.617 19.393C15.0237 20.7528 13.042 21.4923 11 21.4892C6.032 21.4892 2 17.1967 2 11.9077C2 6.61868 6.032 2.32615 11 2.32615C15.968 2.32615 20 6.61868 20 11.9077C20.0029 14.0816 19.3082 16.1914 18.031 17.8876ZM16.025 17.0977C17.2941 15.7082 18.0029 13.8457 18 11.9077C18 7.79082 14.867 4.45538 11 4.45538C7.133 4.45538 4 7.79082 4 11.9077C4 16.0246 7.133 19.36 11 19.36C12.8204 19.3631 14.5699 18.6085 15.875 17.2574L16.025 17.0977Z"
		fill="black" />
</svg>
	